<?xml version="1.0" encoding="UTF-8" standalone="no"?>
<!-- Created with Inkscape (http://www.inkscape.org/) -->

<svg
   xmlns:dc="http://purl.org/dc/elements/1.1/"
   xmlns:cc="http://creativecommons.org/ns#"
   xmlns:rdf="http://www.w3.org/1999/02/22-rdf-syntax-ns#"
   xmlns:svg="http://www.w3.org/2000/svg"
   xmlns="http://www.w3.org/2000/svg"
   xmlns:sodipodi="http://sodipodi.sourceforge.net/DTD/sodipodi-0.dtd"
   xmlns:inkscape="http://www.inkscape.org/namespaces/inkscape"
   width="600"
   height="400"
   id="svg2333"
   sodipodi:version="0.32"
   inkscape:version="0.91pre3 r13670"
   version="1.0"
   sodipodi:docname="Bandera de Cabranes.svg"
   inkscape:output_extension="org.inkscape.output.svg.inkscape">
  <defs
     id="defs2335" />
  <sodipodi:namedview
     id="base"
     pagecolor="#ffffff"
     bordercolor="#666666"
     borderopacity="1.0"
     gridtolerance="10000"
     guidetolerance="10"
     objecttolerance="10"
     inkscape:pageopacity="0.0"
     inkscape:pageshadow="2"
     inkscape:zoom="1.3875236"
     inkscape:cx="361.96971"
     inkscape:cy="185.47867"
     inkscape:document-units="px"
     inkscape:current-layer="layer1"
     width="600px"
     height="400px"
     inkscape:window-width="1680"
     inkscape:window-height="988"
     inkscape:window-x="-8"
     inkscape:window-y="-8"
     showguides="false"
     inkscape:guide-bbox="true"
     showgrid="false"
     inkscape:window-maximized="1" />
  <metadata
     id="metadata2338">
    <rdf:RDF>
      <cc:Work
         rdf:about="">
        <dc:format>image/svg+xml</dc:format>
        <dc:type
           rdf:resource="http://purl.org/dc/dcmitype/StillImage" />
        <dc:title></dc:title>
      </cc:Work>
    </rdf:RDF>
  </metadata>
  <g
     inkscape:label="Layer 1"
     inkscape:groupmode="layer"
     id="layer1">
    <rect
       style="opacity:1;fill:#0f47af;fill-opacity:1;stroke:none;stroke-opacity:1"
       id="rect7163"
       width="600"
       height="400"
       x="0"
       y="0" />
    <g
       id="g4155"
       transform="matrix(0.99999757,0.00220299,-0.00220299,0.99999757,0.43870769,-0.66029952)"
       style="fill:#ffffff">
      <g
         id="g4686">
        <path
           inkscape:connector-curvature="0"
           id="path4157"
           d="M 0,0 0,58.375 517.625,400 600,400 600,339.40625 85.78125,0 0,0 Z"
           style="fill:#ffffff;fill-opacity:1;stroke:none;stroke-width:100;stroke-miterlimit:4;stroke-opacity:1" />
        <path
           id="path4683"
           transform="matrix(0.83439959,0.55115998,-0.55115998,0.83439959,225.92344,233.69365)"
           d="m 364.79297,-117.9668 -32.83789,0.0117 0,48.087892 47.86719,0 0,18.289063 23.96875,-15.832031 -1.62305,-2.457032 -22.11133,0 0,-33.474612 -9.66016,-14.625 -5.60351,0 z m -80.9375,0.0274 -48.09961,0.0176 0,48.054692 47.86523,0 0,47.878907 48.09961,-0.01758 0,-47.861329 -47.86523,0 0,-48.07226 z m -96.19922,0.0351 -48.09961,0.0156 0,48.021482 47.86524,0 0,47.917969 48.0996,-0.01953 0,-47.898438 -47.86523,0 0,-48.037113 z m -96.201172,0.0332 -48.099609,0.0156 0,47.988282 47.865234,0 0,47.955079 48.101567,-0.01953 0,-47.935547 -47.867192,0 0,-48.003904 z m -96.1992186,0.0332 -48.0996094,0.0176 0,47.953122 47.8652344,0 0,47.992188 48.0996096,-0.01953 0,-47.972657 -47.8652346,0 0,-47.970703 z m -96.1992194,0.0332 -48.10156,0.0176 0,47.919922 47.86719,0 0,48.029297 48.099605,-0.01758 0,-48.011719 -47.865235,0 0,-47.9375 z m -96.20117,0.0332 -48.09961,0.0176 0,47.886722 47.86523,0 0,48.066407 48.09961,-0.01758 0,-48.048829 -47.86523,0 0,-47.90429 z m -96.19922,31.464839 -23.96875,15.832032 0.40039,0.607421 23.33399,0 0,35.324219 8.4375,12.775391 5.0039,0 34.6582,-0.01367 0,-48.085938 -47.86523,0 0,-16.439453 z"
           style="fill:#da121a;fill-opacity:1;stroke:none;stroke-width:100;stroke-miterlimit:4;stroke-opacity:1"
           inkscape:connector-curvature="0" />
      </g>
    </g>
    <g
       id="g4640">
      <g
         id="g4609" />
      <g
         transform="translate(47.865606,48.099998)"
         id="g4620" />
    </g>
    <g
       style="fill-rule:evenodd"
       transform="matrix(1.2585745,0,0,1.2585745,129.52528,-406.07263)"
       id="g8">
      <path
         style="fill:#d40000"
         inkscape:connector-curvature="0"
         d="m 276.92,354.11 c -5.2904,-1.4915 -7.2765,-0.0877 -10.975,1.5956 -3.198,1.4557 -5.1507,0.93589 -7.2723,-1.4118 -1.5205,5.2071 3.7823,7.7492 7.633,5.0011 3.9786,-2.8391 6.2482,-4.7127 11.828,-3.5914 l -1.2135,-1.5934 z"
         id="path10" />
      <path
         style="fill:#ffffff;fill-opacity:1"
         inkscape:connector-curvature="0"
         d="m 301.13,450.2 -2.159,0.644 c -5.734,1.705 -5.076,3.826 -3.051,7.603 2.467,4.604 3.219,7.456 3.214,12.247 -0.005,4.228 -1.943,8.654 -3.081,12.868 l -2.407,-2.4 c -0.091,2.047 -1.869,3.833 -4.124,5.201 -1.483,0.9 -2.935,1.477 -4.978,4.242 l -1.541,-2.784 c -6.399,4.738 -6.695,8.289 -7.35,11.909 -1.906,-1.724 -3.68,-3.698 -4.53,-7.419 l -4.273,0.874 c -1.251,-1.218 -2.911,-1.224 -4.653,-1.23 -2.34,-0.008 -4.173,-0.329 -5.258,-2.504 5.448,-4.478 10.619,-3.644 16.317,-5.547 5.721,-1.91 12.585,-5.48 14.774,-10.476 2.72,-6.207 -5.326,-8.868 -9.075,-12.828 -3.86,-4.077 -3.968,-9.826 -3.423,-13.9 -4.267,1.854 -6.22,-1.263 -11.009,4.096 -1.048,-3.871 3.704,-9.318 7.905,-11.318 -7.056,3.953 -10.961,5.737 -14.092,9.072 -0.395,-2.754 1.556,-8.328 3.519,-9.708 1.669,-1.174 5.628,-4.509 5.798,-6.617 0.316,-3.472 2.462,-4.666 6.436,-3.582 1.564,0.297 3.312,0.434 5.17,0.426 5.454,-0.025 11.857,-1.304 17.335,-3.473 1.413,0.254 2.832,0.475 4.255,0.662 2.643,4.664 5.104,10.005 2.975,15.364 -1.221,3.076 -3.306,4.895 -2.694,8.578 z"
         id="path12" />
      <path
         style="fill:#ffff00"
         inkscape:connector-curvature="0"
         d="m 333.3,387.24 c -0.583,1.07 -1.628,1.773 -2.199,2.814 -0.575,1.052 -0.988,1.823 -1.785,2.803 -2.642,3.244 -5.555,6.223 -9.095,8.767 -2.633,1.888 -4.27,0.198 -1.797,-2.226 11.732,-11.511 18.391,-32.159 7.833,-46.349 -3.191,-4.292 -7.583,-7.812 -12.466,-10.129 5.451,1.13 10.753,3.498 15.289,6.817 0.955,0.699 1.866,1.43 2.725,2.188 0.859,0.759 1.689,1.566 2.485,2.417 l 0.006,0.007 c 0.306,0.328 0.603,0.661 0.891,0.997 0.11,1.069 0.074,2.222 0.313,3.187 0.346,1.401 1.229,2.384 1.482,3.782 0.251,1.399 -0.081,3.05 10e-4,4.462 0.082,1.412 0.55,2.616 0.491,3.992 -0.059,1.377 -0.632,2.759 -0.855,4.154 -0.221,1.394 -0.122,2.84 -0.479,4.21 -0.359,1.372 -1.172,2.568 -1.646,3.932 -0.469,1.352 -0.503,2.912 -1.194,4.175 z"
         id="path14" />
      <path
         style="fill:#ffffff;fill-opacity:1"
         inkscape:connector-curvature="0"
         d="m 268.27,399.56 c -2.159,-2.111 -5.315,-5.972 -5.998,-8.249 -2.658,0.594 -5.644,-0.211 -7.599,-1.155 1.077,-0.983 2.083,-2.041 2.606,-3.617 -2.941,0.19 -6.064,-0.165 -9.595,-1.723 1.818,-1.327 3.63,-2.826 5.409,-5.313 -1.911,-1.225 -3.819,-1.998 -5.725,-2.467 -4.192,-1.031 -7.29,1.815 -12.553,-0.293 1.247,-2.08 3.077,-2.879 4.325,-4.957 -0.592,-1.557 -2.427,-2.087 -4.504,-2.11 0.633,-1.391 0.309,-2.895 -0.03,-4.464 -0.57,-2.641 -0.435,-4.159 1.634,-5.829 2.079,1.179 3.787,2.987 5.76,4.361 3.524,2.454 9.419,5.811 12.214,6.43 3.914,1.667 7.524,4.703 11.153,7.662 4.081,2.748 8.005,4.811 11.972,8.339 -1.64,3.441 -5.814,6.246 -9.408,7.222 1.524,1.46 3.149,2.348 5.239,2.688 -1.362,1.856 -2.652,3.092 -4.9,3.475 z"
         id="path16" />
      <path
         style="fill:#ffffff;fill-opacity:1"
         inkscape:connector-curvature="0"
         d="m 312.77,343.11 c 3.864,0.796 6.475,2.077 10.822,5.386 3.647,2.892 -2.209,4.666 -6.712,5.979 1.089,2.93 2.328,5.882 3.938,8.678 l -4.594,0 c 3.186,6.777 2.709,13.41 4.352,18.414 -2.305,0.529 -4.287,0.066 -5.561,-0.534 -1.031,5.873 -1.496,11.106 0.486,18.633 -2.923,-0.452 -5.682,-2.767 -7.257,-5.696 -2.402,1.54 -1.434,3.844 0.363,5.977 3.181,3.775 7.836,6.876 11.453,10.457 4.655,4.607 9.634,10.805 12.652,16.703 2.074,4.057 2.917,9.031 5.848,12.224 0.967,1.053 3.932,1.313 4.414,-0.618 1.003,-4.017 -1.001,-9.766 0.048,-14.563 0.422,-1.933 1.078,-3.753 2.063,-5.271 2.922,-4.502 7.927,-6.361 12.191,-9.255 3.403,-2.309 6.5,-4.954 9.222,-8.249 -1.44,9.524 -7.564,15.514 -15.762,20 3.567,-2.046 6.717,-1.13 8.775,1.625 -6.056,1.021 -11.036,3.516 -11.922,8.873 -0.415,2.51 0.122,4.991 -0.502,7.556 -0.521,2.141 -1.72,4.497 -3.876,5.375 -1.643,0.669 -3.262,0.556 -4.669,-0.07 -4.646,-2.068 -6.946,-12.164 -12.307,-15.407 1.107,2.796 1.129,7.516 1.448,10.831 0.358,3.724 0.479,7.291 5.133,9.388 2.853,1.286 4.323,0.922 7.252,1.273 2.936,0.352 5.626,1.872 8.272,3.604 -1.791,1.331 -4.203,2.053 -6.492,2.895 2.091,1.679 4.332,4.414 7.506,6.635 -2.939,1.192 -4.898,0.916 -7.161,1.022 0.309,2.544 1.986,5.656 5.033,9.333 -3.83,0.785 -8.252,-0.482 -11.72,-2.631 0.919,8.82 0.692,18.484 2.31,27.101 -1.509,0.044 -2.943,-0.339 -4.305,-1.15 l -0.016,2.397 c -1.226,-1.047 -2.807,-1.052 -4.463,-1.058 -2.516,-0.009 -4.196,-0.375 -5.335,-2.659 1.498,-1.948 3.161,-4.748 4.157,-7.471 3.345,-9.148 1.934,-16.771 -1.38,-22.806 -2.007,0.813 -1.34,3.406 -1.498,6.089 -0.21,3.542 -2.721,6.044 -7.359,6.563 4.477,-5.833 -1.661,-12.856 0.303,-16.808 -4.517,2.282 -4.329,8.457 -4.207,11.977 0.231,6.724 -2.081,12.421 -13.296,15.233 7.057,-6.166 7.331,-11.688 6.151,-19.774 -0.563,-3.847 1.458,-7.453 5.357,-10.883 -7.652,-2.318 -11.618,-7.956 -8.531,-13.21 5.07,-7.31 1.676,-14.314 -1.756,-20.281 -5.897,-0.732 -15.492,-2.561 -20.287,-6.054 -2.876,2.192 -6.399,1.967 -9.875,3.424 0.316,-1.998 2.188,-4.569 2.96,-6.352 -3.466,1.656 -7.963,2.015 -10.568,3.621 0.181,-1.574 0.57,-3.64 1.702,-5.275 -1.02,-0.399 -6.698,-1.985 -7.727,-2.406 -4.623,-1.89 -5.781,1.887 -5.339,5.171 0.346,2.569 2.841,7.527 2.872,10.803 -1.486,0.156 -3.224,-0.912 -4.809,-1.991 l -0.017,3.628 c -1.463,-0.541 -2.931,-0.043 -4.467,0.477 -2.244,0.76 -4.079,1.044 -5.828,-0.673 3.143,-8.539 3.158,-15.036 4.577,-23.146 1.33,-7.603 5.991,-9.102 12.131,-6.536 1.798,0.651 6.635,1.519 9.912,1.465 4.722,-0.076 6.262,-2.399 8.767,-6.091 -1.031,-0.123 -3.828,-0.576 -4.81,-1.295 3.512,-1.585 6.153,-3.756 7.563,-6.473 1.498,-2.886 1.828,-5.918 3.58,-8.823 4.062,-6.733 10.346,-11.721 11.414,-18.544 3.705,-0.213 6.989,-2.846 8.483,-8.116 l -0.465,-0.179 c -1.546,3.946 -4.749,5.959 -8.412,6.514 -3.262,0.493 -5.926,-0.586 -9.106,-0.955 1.516,4.704 0.341,8.074 -3.475,11.914 -2.679,2.695 -3.951,5.885 -3.549,9.642 -3.124,-3.928 -4.926,-8.241 -1.464,-13.018 2.242,-3.095 5.512,-3.864 4.471,-8.006 -1.12,0.397 -2.251,0.974 -3.429,1.659 -2.365,0.902 -5.116,1.207 -6.381,-1.189 1.318,-0.34 2.082,-0.654 3.319,-1.228 3.372,-1.565 2.884,-4.925 -1.316,-4.903 -1.855,0.01 -3.089,0.246 -4.741,-0.222 -0.492,-1.29 -0.741,-2.62 -0.067,-4.319 2.084,0.658 4.03,0.403 5.988,-0.464 1.462,-0.648 0.142,-2.888 -1.009,-2.155 -1.321,0.841 -2.598,1.148 -4.171,0.692 2.683,-3.622 9.75,-6.199 17.971,-9.515 2.522,-1.017 4.895,-4.161 13.09,-4.975 6.797,1.436 11.987,4.719 13.644,12.066 z"
         id="path18" />
      <path
         style="fill:#9e7800"
         inkscape:connector-curvature="0"
         d="m 272.74,482.15 0.005,-10e-4 0.298,1.015 -0.291,-1.018 -0.008,0 0,-0.001 -0.006,0.001 0.002,0.004 z"
         id="path20" />
      <path
         style="fill:none;stroke:#000000;stroke-width:1.58909941;stroke-miterlimit:4;stroke-dasharray:none"
         inkscape:connector-curvature="0"
         d="m 304.49,441.93 c -2.613,-0.567 -3.74,-2.967 -3.258,-4.67 1.366,-4.832 -0.116,-6.21 -3.237,-9.788 l 3.673,-1.879"
         stroke-miterlimit="4"
         id="path22" />
      <path
         style="fill:#9e7800"
         inkscape:connector-curvature="0"
         d="m 304.31,449.26 -0.009,-0.035 0,-0.001 0.009,0.036 z"
         id="path24" />
      <path
         style="fill:#9e7800"
         inkscape:connector-curvature="0"
         d="m 304.76,451.02 -0.006,0.002 0.007,0 0,-0.002 -0.001,0 z"
         id="path26" />
      <path
         style="fill:#ffff00"
         inkscape:connector-curvature="0"
         d="m 348.42,393.58 c -0.559,1.367 -1.724,2.354 -2.269,3.686 -0.549,1.341 -0.945,2.326 -1.771,3.613 -2.739,4.262 -5.845,8.241 -9.765,11.78 -2.913,2.628 -5.113,0.816 -2.463,-2.438 12.568,-15.437 17.796,-41.189 3.174,-56.844 -5.84,-6.253 -14.015,-10.606 -22.432,-12.079 -4.594,-0.803 -7.51,-0.568 -10.905,0.472 l -3.245,-10.141 c -0.09,-1.676 1.623,-0.85 3.678,-1.23 1.637,-0.302 3.061,-1.652 4.737,-1.715 1.677,-0.063 3.118,1.211 4.841,1.357 1.722,0.146 3.691,-0.869 5.325,-0.494 1.633,0.374 2.362,2.094 3.913,2.616 1.55,0.522 3.61,-0.299 5.095,0.416 1.485,0.714 1.851,2.674 3.18,3.566 1.328,0.892 3.24,0.536 4.542,1.617 1.302,1.08 1.717,3.287 2.841,4.511 1.124,1.223 2.762,1.442 3.778,2.692 1.016,1.252 1.243,3.16 2.116,4.566 0.873,1.405 2.331,2.234 3.082,3.805 0.752,1.571 0.712,3.759 1.319,5.396 0.606,1.636 1.802,2.701 2.293,4.349 0.492,1.648 0.316,3.682 0.605,5.37 0.29,1.688 1.017,3.076 1.13,4.74 0.113,1.665 -0.388,3.406 -0.467,5.116 -0.08,1.709 0.234,3.435 -0.011,5.133 -0.246,1.698 -1.064,3.246 -1.45,4.952 -0.383,1.692 -0.211,3.574 -0.871,5.188 z"
         id="path28" />
      <path
         style="fill:#9e7800"
         inkscape:connector-curvature="0"
         d="m 272.74,482.15 0.005,-10e-4 0.298,1.015 -0.291,-1.018 -0.008,0 0,-0.001 -0.006,0.001 0.002,0.004 z"
         id="path30" />
      <path
         style="fill:#9e7800"
         inkscape:connector-curvature="0"
         d="m 304.31,449.26 -0.009,-0.035 0,-0.001 0.009,0.036 z"
         id="path32" />
      <path
         style="fill:#9e7800"
         inkscape:connector-curvature="0"
         d="m 304.76,451.02 -0.006,0.002 0.007,0 0,-0.002 -0.001,0 z"
         id="path34" />
      <path
         style="fill:#000000"
         inkscape:connector-curvature="0"
         d="m 324.66,351.97 c 2.391,-1.423 0.569,-2.903 -1.879,-4.725 -3.529,-2.619 -8.482,-5.522 -13.036,-5.124 -1.424,0.114 -2.961,0.285 -3.758,-0.626 -0.227,0.399 0.342,1.594 1.424,1.822 0.967,0.228 2.846,0 3.928,0.171 2.618,0 8.994,3.188 10.588,4.725 1.423,1.081 2.163,1.878 2.05,2.391 -0.228,0.74 -3.644,2.163 -4.612,2.505 -3.017,1.024 -6.432,1.423 -9.677,-0.684 -1.822,-1.195 -2.448,-2.504 -2.79,-4.554 l -0.398,1.196 c 0.512,2.049 1.366,3.301 2.505,4.326 4.497,3.985 11.385,1.139 15.655,-1.423 z m -15.029,-6.831 c 3.415,0.512 7.116,2.618 9.677,4.611 0,0 -4.383,-1.765 -6.603,-2.619 -0.968,-0.341 -4.725,-1.537 -3.928,1.253 0,0 -0.797,-0.741 -0.968,-1.538 -0.284,-1.024 0.854,-1.878 1.822,-1.707 z"
         id="path36" />
      <path
         style="fill:#000000"
         inkscape:connector-curvature="0"
         d="m 289.93,338.36 c 1.835,0.27 3.549,0.329 5.192,-0.667 l 0.622,1.025 c -0.891,0.541 -1.764,0.832 -2.645,0.957 l -0.009,0.004 c 0.125,0.19 0.272,1.138 0.272,1.339 0,1.583 -1.284,2.868 -2.868,2.868 -1.557,0 -2.823,-1.241 -2.867,-2.786 l -3.371,0.99 -0.255,-0.428 5.929,-3.302 z"
         id="path38" />
      <path
         style="fill:#ffffff"
         inkscape:connector-curvature="0"
         d="m 291.78,341.79 c -0.139,0.042 -0.287,0.066 -0.441,0.066 -0.835,0 -1.511,-0.676 -1.511,-1.51 0,-0.282 0.082,-0.55 0.222,-0.779 -0.62,0.191 -1.072,0.777 -1.072,1.445 0,0.834 0.676,1.51 1.51,1.51 0.549,0 1.028,-0.294 1.292,-0.732 z"
         id="path40" />
      <path
         style="fill:#ffff00"
         inkscape:connector-curvature="0"
         d="m 322.52,501.22 -5.108,7.966 c 4.567,1.144 12.18,-0.654 14.143,-2.244 1.888,-1.528 1.95,-3.579 1.965,-5.439 -2.265,-3.41 -7.904,0.77 -10.498,-4.424 l -8.092,9.061 2.75,-0.078 4.84,-4.842 z"
         id="path42" />
      <path
         style="fill:#ffff00"
         inkscape:connector-curvature="0"
         d="m 255.69,494.21 -5.108,7.965 c 4.567,1.144 12.18,-0.654 14.144,-2.243 1.887,-1.529 1.949,-3.58 1.964,-5.439 -2.265,-3.41 -7.904,0.769 -10.498,-4.425 l -8.092,9.061 2.75,-0.078 4.84,-4.841 z"
         id="path44" />
      <path
         style="fill:#ffff00"
         inkscape:connector-curvature="0"
         d="m 240.61,434.23 -2.249,9.192 c 4.692,-0.399 11.31,-4.569 12.652,-6.71 1.289,-2.058 0.682,-4.018 0.094,-5.782 -3.249,-2.491 -7.227,3.292 -11.366,-0.78 l -4.715,11.196 2.576,-0.966 3.008,-6.15 z"
         id="path46" />
      <path
         style="fill:#ffff00"
         inkscape:connector-curvature="0"
         d="m 231.08,359.34 -8.876,-3.281 c -0.138,4.706 3.251,11.756 5.225,13.333 1.897,1.516 3.914,1.137 5.733,0.753 2.845,-2.944 -2.446,-7.555 2.071,-11.203 l -10.586,-5.96 0.666,2.669 5.767,3.689 z"
         id="path48" />
    </g>
    <g
       id="g4785"
       transform="matrix(1.2585745,0,0,1.2585745,-272.63004,-248.23748)"
       style="fill-rule:evenodd">
      <path
         id="path4787"
         d="m 276.92,354.11 c -5.2904,-1.4915 -7.2765,-0.0877 -10.975,1.5956 -3.198,1.4557 -5.1507,0.93589 -7.2723,-1.4118 -1.5205,5.2071 3.7823,7.7492 7.633,5.0011 3.9786,-2.8391 6.2482,-4.7127 11.828,-3.5914 l -1.2135,-1.5934 z"
         inkscape:connector-curvature="0"
         style="fill:#d40000" />
      <path
         id="path4789"
         d="m 301.13,450.2 -2.159,0.644 c -5.734,1.705 -5.076,3.826 -3.051,7.603 2.467,4.604 3.219,7.456 3.214,12.247 -0.005,4.228 -1.943,8.654 -3.081,12.868 l -2.407,-2.4 c -0.091,2.047 -1.869,3.833 -4.124,5.201 -1.483,0.9 -2.935,1.477 -4.978,4.242 l -1.541,-2.784 c -6.399,4.738 -6.695,8.289 -7.35,11.909 -1.906,-1.724 -3.68,-3.698 -4.53,-7.419 l -4.273,0.874 c -1.251,-1.218 -2.911,-1.224 -4.653,-1.23 -2.34,-0.008 -4.173,-0.329 -5.258,-2.504 5.448,-4.478 10.619,-3.644 16.317,-5.547 5.721,-1.91 12.585,-5.48 14.774,-10.476 2.72,-6.207 -5.326,-8.868 -9.075,-12.828 -3.86,-4.077 -3.968,-9.826 -3.423,-13.9 -4.267,1.854 -6.22,-1.263 -11.009,4.096 -1.048,-3.871 3.704,-9.318 7.905,-11.318 -7.056,3.953 -10.961,5.737 -14.092,9.072 -0.395,-2.754 1.556,-8.328 3.519,-9.708 1.669,-1.174 5.628,-4.509 5.798,-6.617 0.316,-3.472 2.462,-4.666 6.436,-3.582 1.564,0.297 3.312,0.434 5.17,0.426 5.454,-0.025 11.857,-1.304 17.335,-3.473 1.413,0.254 2.832,0.475 4.255,0.662 2.643,4.664 5.104,10.005 2.975,15.364 -1.221,3.076 -3.306,4.895 -2.694,8.578 z"
         inkscape:connector-curvature="0"
         style="fill:#ffffff;fill-opacity:1" />
      <path
         id="path4791"
         d="m 333.3,387.24 c -0.583,1.07 -1.628,1.773 -2.199,2.814 -0.575,1.052 -0.988,1.823 -1.785,2.803 -2.642,3.244 -5.555,6.223 -9.095,8.767 -2.633,1.888 -4.27,0.198 -1.797,-2.226 11.732,-11.511 18.391,-32.159 7.833,-46.349 -3.191,-4.292 -7.583,-7.812 -12.466,-10.129 5.451,1.13 10.753,3.498 15.289,6.817 0.955,0.699 1.866,1.43 2.725,2.188 0.859,0.759 1.689,1.566 2.485,2.417 l 0.006,0.007 c 0.306,0.328 0.603,0.661 0.891,0.997 0.11,1.069 0.074,2.222 0.313,3.187 0.346,1.401 1.229,2.384 1.482,3.782 0.251,1.399 -0.081,3.05 10e-4,4.462 0.082,1.412 0.55,2.616 0.491,3.992 -0.059,1.377 -0.632,2.759 -0.855,4.154 -0.221,1.394 -0.122,2.84 -0.479,4.21 -0.359,1.372 -1.172,2.568 -1.646,3.932 -0.469,1.352 -0.503,2.912 -1.194,4.175 z"
         inkscape:connector-curvature="0"
         style="fill:#ffff00" />
      <path
         id="path4793"
         d="m 268.27,399.56 c -2.159,-2.111 -5.315,-5.972 -5.998,-8.249 -2.658,0.594 -5.644,-0.211 -7.599,-1.155 1.077,-0.983 2.083,-2.041 2.606,-3.617 -2.941,0.19 -6.064,-0.165 -9.595,-1.723 1.818,-1.327 3.63,-2.826 5.409,-5.313 -1.911,-1.225 -3.819,-1.998 -5.725,-2.467 -4.192,-1.031 -7.29,1.815 -12.553,-0.293 1.247,-2.08 3.077,-2.879 4.325,-4.957 -0.592,-1.557 -2.427,-2.087 -4.504,-2.11 0.633,-1.391 0.309,-2.895 -0.03,-4.464 -0.57,-2.641 -0.435,-4.159 1.634,-5.829 2.079,1.179 3.787,2.987 5.76,4.361 3.524,2.454 9.419,5.811 12.214,6.43 3.914,1.667 7.524,4.703 11.153,7.662 4.081,2.748 8.005,4.811 11.972,8.339 -1.64,3.441 -5.814,6.246 -9.408,7.222 1.524,1.46 3.149,2.348 5.239,2.688 -1.362,1.856 -2.652,3.092 -4.9,3.475 z"
         inkscape:connector-curvature="0"
         style="fill:#ffffff;fill-opacity:1" />
      <path
         id="path4795"
         d="m 312.77,343.11 c 3.864,0.796 6.475,2.077 10.822,5.386 3.647,2.892 -2.209,4.666 -6.712,5.979 1.089,2.93 2.328,5.882 3.938,8.678 l -4.594,0 c 3.186,6.777 2.709,13.41 4.352,18.414 -2.305,0.529 -4.287,0.066 -5.561,-0.534 -1.031,5.873 -1.496,11.106 0.486,18.633 -2.923,-0.452 -5.682,-2.767 -7.257,-5.696 -2.402,1.54 -1.434,3.844 0.363,5.977 3.181,3.775 7.836,6.876 11.453,10.457 4.655,4.607 9.634,10.805 12.652,16.703 2.074,4.057 2.917,9.031 5.848,12.224 0.967,1.053 3.932,1.313 4.414,-0.618 1.003,-4.017 -1.001,-9.766 0.048,-14.563 0.422,-1.933 1.078,-3.753 2.063,-5.271 2.922,-4.502 7.927,-6.361 12.191,-9.255 3.403,-2.309 6.5,-4.954 9.222,-8.249 -1.44,9.524 -7.564,15.514 -15.762,20 3.567,-2.046 6.717,-1.13 8.775,1.625 -6.056,1.021 -11.036,3.516 -11.922,8.873 -0.415,2.51 0.122,4.991 -0.502,7.556 -0.521,2.141 -1.72,4.497 -3.876,5.375 -1.643,0.669 -3.262,0.556 -4.669,-0.07 -4.646,-2.068 -6.946,-12.164 -12.307,-15.407 1.107,2.796 1.129,7.516 1.448,10.831 0.358,3.724 0.479,7.291 5.133,9.388 2.853,1.286 4.323,0.922 7.252,1.273 2.936,0.352 5.626,1.872 8.272,3.604 -1.791,1.331 -4.203,2.053 -6.492,2.895 2.091,1.679 4.332,4.414 7.506,6.635 -2.939,1.192 -4.898,0.916 -7.161,1.022 0.309,2.544 1.986,5.656 5.033,9.333 -3.83,0.785 -8.252,-0.482 -11.72,-2.631 0.919,8.82 0.692,18.484 2.31,27.101 -1.509,0.044 -2.943,-0.339 -4.305,-1.15 l -0.016,2.397 c -1.226,-1.047 -2.807,-1.052 -4.463,-1.058 -2.516,-0.009 -4.196,-0.375 -5.335,-2.659 1.498,-1.948 3.161,-4.748 4.157,-7.471 3.345,-9.148 1.934,-16.771 -1.38,-22.806 -2.007,0.813 -1.34,3.406 -1.498,6.089 -0.21,3.542 -2.721,6.044 -7.359,6.563 4.477,-5.833 -1.661,-12.856 0.303,-16.808 -4.517,2.282 -4.329,8.457 -4.207,11.977 0.231,6.724 -2.081,12.421 -13.296,15.233 7.057,-6.166 7.331,-11.688 6.151,-19.774 -0.563,-3.847 1.458,-7.453 5.357,-10.883 -7.652,-2.318 -11.618,-7.956 -8.531,-13.21 5.07,-7.31 1.676,-14.314 -1.756,-20.281 -5.897,-0.732 -15.492,-2.561 -20.287,-6.054 -2.876,2.192 -6.399,1.967 -9.875,3.424 0.316,-1.998 2.188,-4.569 2.96,-6.352 -3.466,1.656 -7.963,2.015 -10.568,3.621 0.181,-1.574 0.57,-3.64 1.702,-5.275 -1.02,-0.399 -6.698,-1.985 -7.727,-2.406 -4.623,-1.89 -5.781,1.887 -5.339,5.171 0.346,2.569 2.841,7.527 2.872,10.803 -1.486,0.156 -3.224,-0.912 -4.809,-1.991 l -0.017,3.628 c -1.463,-0.541 -2.931,-0.043 -4.467,0.477 -2.244,0.76 -4.079,1.044 -5.828,-0.673 3.143,-8.539 3.158,-15.036 4.577,-23.146 1.33,-7.603 5.991,-9.102 12.131,-6.536 1.798,0.651 6.635,1.519 9.912,1.465 4.722,-0.076 6.262,-2.399 8.767,-6.091 -1.031,-0.123 -3.828,-0.576 -4.81,-1.295 3.512,-1.585 6.153,-3.756 7.563,-6.473 1.498,-2.886 1.828,-5.918 3.58,-8.823 4.062,-6.733 10.346,-11.721 11.414,-18.544 3.705,-0.213 6.989,-2.846 8.483,-8.116 l -0.465,-0.179 c -1.546,3.946 -4.749,5.959 -8.412,6.514 -3.262,0.493 -5.926,-0.586 -9.106,-0.955 1.516,4.704 0.341,8.074 -3.475,11.914 -2.679,2.695 -3.951,5.885 -3.549,9.642 -3.124,-3.928 -4.926,-8.241 -1.464,-13.018 2.242,-3.095 5.512,-3.864 4.471,-8.006 -1.12,0.397 -2.251,0.974 -3.429,1.659 -2.365,0.902 -5.116,1.207 -6.381,-1.189 1.318,-0.34 2.082,-0.654 3.319,-1.228 3.372,-1.565 2.884,-4.925 -1.316,-4.903 -1.855,0.01 -3.089,0.246 -4.741,-0.222 -0.492,-1.29 -0.741,-2.62 -0.067,-4.319 2.084,0.658 4.03,0.403 5.988,-0.464 1.462,-0.648 0.142,-2.888 -1.009,-2.155 -1.321,0.841 -2.598,1.148 -4.171,0.692 2.683,-3.622 9.75,-6.199 17.971,-9.515 2.522,-1.017 4.895,-4.161 13.09,-4.975 6.797,1.436 11.987,4.719 13.644,12.066 z"
         inkscape:connector-curvature="0"
         style="fill:#ffffff;fill-opacity:1" />
      <path
         id="path4797"
         d="m 272.74,482.15 0.005,-10e-4 0.298,1.015 -0.291,-1.018 -0.008,0 0,-0.001 -0.006,0.001 0.002,0.004 z"
         inkscape:connector-curvature="0"
         style="fill:#9e7800" />
      <path
         id="path4799"
         stroke-miterlimit="4"
         d="m 304.49,441.93 c -2.613,-0.567 -3.74,-2.967 -3.258,-4.67 1.366,-4.832 -0.116,-6.21 -3.237,-9.788 l 3.673,-1.879"
         inkscape:connector-curvature="0"
         style="fill:none;stroke:#000000;stroke-width:1.58909941;stroke-miterlimit:4;stroke-dasharray:none" />
      <path
         id="path4801"
         d="m 304.31,449.26 -0.009,-0.035 0,-0.001 0.009,0.036 z"
         inkscape:connector-curvature="0"
         style="fill:#9e7800" />
      <path
         id="path4803"
         d="m 304.76,451.02 -0.006,0.002 0.007,0 0,-0.002 -0.001,0 z"
         inkscape:connector-curvature="0"
         style="fill:#9e7800" />
      <path
         id="path4805"
         d="m 348.42,393.58 c -0.559,1.367 -1.724,2.354 -2.269,3.686 -0.549,1.341 -0.945,2.326 -1.771,3.613 -2.739,4.262 -5.845,8.241 -9.765,11.78 -2.913,2.628 -5.113,0.816 -2.463,-2.438 12.568,-15.437 17.796,-41.189 3.174,-56.844 -5.84,-6.253 -14.015,-10.606 -22.432,-12.079 -4.594,-0.803 -7.51,-0.568 -10.905,0.472 l -3.245,-10.141 c -0.09,-1.676 1.623,-0.85 3.678,-1.23 1.637,-0.302 3.061,-1.652 4.737,-1.715 1.677,-0.063 3.118,1.211 4.841,1.357 1.722,0.146 3.691,-0.869 5.325,-0.494 1.633,0.374 2.362,2.094 3.913,2.616 1.55,0.522 3.61,-0.299 5.095,0.416 1.485,0.714 1.851,2.674 3.18,3.566 1.328,0.892 3.24,0.536 4.542,1.617 1.302,1.08 1.717,3.287 2.841,4.511 1.124,1.223 2.762,1.442 3.778,2.692 1.016,1.252 1.243,3.16 2.116,4.566 0.873,1.405 2.331,2.234 3.082,3.805 0.752,1.571 0.712,3.759 1.319,5.396 0.606,1.636 1.802,2.701 2.293,4.349 0.492,1.648 0.316,3.682 0.605,5.37 0.29,1.688 1.017,3.076 1.13,4.74 0.113,1.665 -0.388,3.406 -0.467,5.116 -0.08,1.709 0.234,3.435 -0.011,5.133 -0.246,1.698 -1.064,3.246 -1.45,4.952 -0.383,1.692 -0.211,3.574 -0.871,5.188 z"
         inkscape:connector-curvature="0"
         style="fill:#ffff00" />
      <path
         id="path4807"
         d="m 272.74,482.15 0.005,-10e-4 0.298,1.015 -0.291,-1.018 -0.008,0 0,-0.001 -0.006,0.001 0.002,0.004 z"
         inkscape:connector-curvature="0"
         style="fill:#9e7800" />
      <path
         id="path4809"
         d="m 304.31,449.26 -0.009,-0.035 0,-0.001 0.009,0.036 z"
         inkscape:connector-curvature="0"
         style="fill:#9e7800" />
      <path
         id="path4811"
         d="m 304.76,451.02 -0.006,0.002 0.007,0 0,-0.002 -0.001,0 z"
         inkscape:connector-curvature="0"
         style="fill:#9e7800" />
      <path
         id="path4813"
         d="m 324.66,351.97 c 2.391,-1.423 0.569,-2.903 -1.879,-4.725 -3.529,-2.619 -8.482,-5.522 -13.036,-5.124 -1.424,0.114 -2.961,0.285 -3.758,-0.626 -0.227,0.399 0.342,1.594 1.424,1.822 0.967,0.228 2.846,0 3.928,0.171 2.618,0 8.994,3.188 10.588,4.725 1.423,1.081 2.163,1.878 2.05,2.391 -0.228,0.74 -3.644,2.163 -4.612,2.505 -3.017,1.024 -6.432,1.423 -9.677,-0.684 -1.822,-1.195 -2.448,-2.504 -2.79,-4.554 l -0.398,1.196 c 0.512,2.049 1.366,3.301 2.505,4.326 4.497,3.985 11.385,1.139 15.655,-1.423 z m -15.029,-6.831 c 3.415,0.512 7.116,2.618 9.677,4.611 0,0 -4.383,-1.765 -6.603,-2.619 -0.968,-0.341 -4.725,-1.537 -3.928,1.253 0,0 -0.797,-0.741 -0.968,-1.538 -0.284,-1.024 0.854,-1.878 1.822,-1.707 z"
         inkscape:connector-curvature="0"
         style="fill:#000000" />
      <path
         id="path4815"
         d="m 289.93,338.36 c 1.835,0.27 3.549,0.329 5.192,-0.667 l 0.622,1.025 c -0.891,0.541 -1.764,0.832 -2.645,0.957 l -0.009,0.004 c 0.125,0.19 0.272,1.138 0.272,1.339 0,1.583 -1.284,2.868 -2.868,2.868 -1.557,0 -2.823,-1.241 -2.867,-2.786 l -3.371,0.99 -0.255,-0.428 5.929,-3.302 z"
         inkscape:connector-curvature="0"
         style="fill:#000000" />
      <path
         id="path4817"
         d="m 291.78,341.79 c -0.139,0.042 -0.287,0.066 -0.441,0.066 -0.835,0 -1.511,-0.676 -1.511,-1.51 0,-0.282 0.082,-0.55 0.222,-0.779 -0.62,0.191 -1.072,0.777 -1.072,1.445 0,0.834 0.676,1.51 1.51,1.51 0.549,0 1.028,-0.294 1.292,-0.732 z"
         inkscape:connector-curvature="0"
         style="fill:#ffffff" />
      <path
         id="path4819"
         d="m 322.52,501.22 -5.108,7.966 c 4.567,1.144 12.18,-0.654 14.143,-2.244 1.888,-1.528 1.95,-3.579 1.965,-5.439 -2.265,-3.41 -7.904,0.77 -10.498,-4.424 l -8.092,9.061 2.75,-0.078 4.84,-4.842 z"
         inkscape:connector-curvature="0"
         style="fill:#ffff00" />
      <path
         id="path4821"
         d="m 255.69,494.21 -5.108,7.965 c 4.567,1.144 12.18,-0.654 14.144,-2.243 1.887,-1.529 1.949,-3.58 1.964,-5.439 -2.265,-3.41 -7.904,0.769 -10.498,-4.425 l -8.092,9.061 2.75,-0.078 4.84,-4.841 z"
         inkscape:connector-curvature="0"
         style="fill:#ffff00" />
      <path
         id="path4823"
         d="m 240.61,434.23 -2.249,9.192 c 4.692,-0.399 11.31,-4.569 12.652,-6.71 1.289,-2.058 0.682,-4.018 0.094,-5.782 -3.249,-2.491 -7.227,3.292 -11.366,-0.78 l -4.715,11.196 2.576,-0.966 3.008,-6.15 z"
         inkscape:connector-curvature="0"
         style="fill:#ffff00" />
      <path
         id="path4825"
         d="m 231.08,359.34 -8.876,-3.281 c -0.138,4.706 3.251,11.756 5.225,13.333 1.897,1.516 3.914,1.137 5.733,0.753 2.845,-2.944 -2.446,-7.555 2.071,-11.203 l -10.586,-5.96 0.666,2.669 5.767,3.689 z"
         inkscape:connector-curvature="0"
         style="fill:#ffff00" />
    </g>
  </g>
</svg>
